<mxfile host="app.diagrams.net" agent="Mozilla/5.0 (Windows NT 10.0; Win64; x64) AppleWebKit/537.36 (KHTML, like Gecko) Chrome/127.0.0.0 Safari/537.36" version="24.7.5" pages="9">
  <diagram name="Page-1" id="deEEFIdop-7Vs_CSf3p_">
    <mxGraphModel dx="882" dy="504" grid="1" gridSize="10" guides="1" tooltips="1" connect="1" arrows="1" fold="1" page="1" pageScale="1" pageWidth="850" pageHeight="1100" math="0" shadow="0">
      <root>
        <mxCell id="0" />
        <mxCell id="1" parent="0" />
        <mxCell id="QB_igprNmcQGw961Ykan-1" value="Guru" style="shape=umlActor;verticalLabelPosition=bottom;verticalAlign=top;html=1;outlineConnect=0;" vertex="1" parent="1">
          <mxGeometry x="160" y="250" width="30" height="60" as="geometry" />
        </mxCell>
        <mxCell id="QB_igprNmcQGw961Ykan-2" value="" style="whiteSpace=wrap;html=1;aspect=fixed;strokeColor=#000000;fillColor=none;" vertex="1" parent="1">
          <mxGeometry x="220" y="100" width="370" height="370" as="geometry" />
        </mxCell>
        <mxCell id="QB_igprNmcQGw961Ykan-12" style="edgeStyle=orthogonalEdgeStyle;rounded=0;orthogonalLoop=1;jettySize=auto;html=1;exitX=1;exitY=0.5;exitDx=0;exitDy=0;dashed=1;strokeWidth=2;" edge="1" parent="1" source="QB_igprNmcQGw961Ykan-3" target="QB_igprNmcQGw961Ykan-5">
          <mxGeometry relative="1" as="geometry" />
        </mxCell>
        <mxCell id="QB_igprNmcQGw961Ykan-3" value="Login" style="ellipse;whiteSpace=wrap;html=1;" vertex="1" parent="1">
          <mxGeometry x="285" y="120" width="70" height="40" as="geometry" />
        </mxCell>
        <mxCell id="QB_igprNmcQGw961Ykan-5" value="&lt;font style=&quot;font-size: 10px;&quot;&gt;Melihat Jadwal Mata Pelajaran&amp;nbsp;&lt;/font&gt;" style="ellipse;whiteSpace=wrap;html=1;" vertex="1" parent="1">
          <mxGeometry x="355" y="170" width="85" height="50" as="geometry" />
        </mxCell>
        <mxCell id="QB_igprNmcQGw961Ykan-6" value="&lt;font style=&quot;font-size: 10px;&quot;&gt;Menambah Materi dan Tugas&lt;/font&gt;" style="ellipse;whiteSpace=wrap;html=1;" vertex="1" parent="1">
          <mxGeometry x="355" y="250" width="100" height="50" as="geometry" />
        </mxCell>
        <mxCell id="QB_igprNmcQGw961Ykan-7" value="&lt;font style=&quot;font-size: 10px;&quot;&gt;Memasukan Nilai Siswa&lt;/font&gt;" style="ellipse;whiteSpace=wrap;html=1;" vertex="1" parent="1">
          <mxGeometry x="355" y="340" width="100" height="50" as="geometry" />
        </mxCell>
        <mxCell id="QB_igprNmcQGw961Ykan-9" value="Logout" style="ellipse;whiteSpace=wrap;html=1;" vertex="1" parent="1">
          <mxGeometry x="285" y="410" width="70" height="40" as="geometry" />
        </mxCell>
        <mxCell id="QB_igprNmcQGw961Ykan-10" value="" style="endArrow=none;html=1;rounded=0;exitX=0.5;exitY=0.5;exitDx=0;exitDy=0;exitPerimeter=0;entryX=0;entryY=0.5;entryDx=0;entryDy=0;strokeWidth=1;" edge="1" parent="1" source="QB_igprNmcQGw961Ykan-1" target="QB_igprNmcQGw961Ykan-3">
          <mxGeometry width="50" height="50" relative="1" as="geometry">
            <mxPoint x="300" y="300" as="sourcePoint" />
            <mxPoint x="350" y="250" as="targetPoint" />
          </mxGeometry>
        </mxCell>
        <mxCell id="QB_igprNmcQGw961Ykan-15" value="" style="endArrow=none;html=1;rounded=0;entryX=0;entryY=0.5;entryDx=0;entryDy=0;exitX=0.5;exitY=0.5;exitDx=0;exitDy=0;exitPerimeter=0;" edge="1" parent="1" source="QB_igprNmcQGw961Ykan-1" target="QB_igprNmcQGw961Ykan-6">
          <mxGeometry width="50" height="50" relative="1" as="geometry">
            <mxPoint x="300" y="300" as="sourcePoint" />
            <mxPoint x="350" y="250" as="targetPoint" />
          </mxGeometry>
        </mxCell>
        <mxCell id="QB_igprNmcQGw961Ykan-16" value="" style="endArrow=none;html=1;rounded=0;entryX=0;entryY=0.5;entryDx=0;entryDy=0;" edge="1" parent="1" target="QB_igprNmcQGw961Ykan-5">
          <mxGeometry width="50" height="50" relative="1" as="geometry">
            <mxPoint x="175" y="280" as="sourcePoint" />
            <mxPoint x="350" y="250" as="targetPoint" />
          </mxGeometry>
        </mxCell>
        <mxCell id="QB_igprNmcQGw961Ykan-18" value="" style="endArrow=none;html=1;rounded=0;entryX=0;entryY=0.5;entryDx=0;entryDy=0;exitX=0.5;exitY=0.5;exitDx=0;exitDy=0;exitPerimeter=0;" edge="1" parent="1" source="QB_igprNmcQGw961Ykan-1" target="QB_igprNmcQGw961Ykan-7">
          <mxGeometry width="50" height="50" relative="1" as="geometry">
            <mxPoint x="300" y="300" as="sourcePoint" />
            <mxPoint x="350" y="250" as="targetPoint" />
          </mxGeometry>
        </mxCell>
        <mxCell id="QB_igprNmcQGw961Ykan-19" value="" style="endArrow=none;html=1;rounded=0;entryX=0;entryY=0.5;entryDx=0;entryDy=0;exitX=0.5;exitY=0.5;exitDx=0;exitDy=0;exitPerimeter=0;" edge="1" parent="1" source="QB_igprNmcQGw961Ykan-1" target="QB_igprNmcQGw961Ykan-9">
          <mxGeometry width="50" height="50" relative="1" as="geometry">
            <mxPoint x="300" y="300" as="sourcePoint" />
            <mxPoint x="350" y="250" as="targetPoint" />
          </mxGeometry>
        </mxCell>
        <mxCell id="QB_igprNmcQGw961Ykan-20" value="&amp;lt;Include&amp;gt;" style="text;html=1;align=center;verticalAlign=middle;whiteSpace=wrap;rounded=0;" vertex="1" parent="1">
          <mxGeometry x="365" y="110" width="60" height="30" as="geometry" />
        </mxCell>
      </root>
    </mxGraphModel>
  </diagram>
  <diagram id="end8o1V_7W2rdeVKeayN" name="Page-2">
    <mxGraphModel dx="690" dy="395" grid="1" gridSize="10" guides="1" tooltips="1" connect="1" arrows="1" fold="1" page="1" pageScale="1" pageWidth="850" pageHeight="1100" math="0" shadow="0">
      <root>
        <mxCell id="0" />
        <mxCell id="1" parent="0" />
        <mxCell id="3uuGS9DZFVvtzG-av5zq-1" value="Siswa" style="shape=umlActor;verticalLabelPosition=bottom;verticalAlign=top;html=1;outlineConnect=0;" vertex="1" parent="1">
          <mxGeometry x="160" y="250" width="30" height="60" as="geometry" />
        </mxCell>
        <mxCell id="3uuGS9DZFVvtzG-av5zq-2" value="" style="whiteSpace=wrap;html=1;aspect=fixed;fillColor=none;" vertex="1" parent="1">
          <mxGeometry x="220" y="100" width="370" height="370" as="geometry" />
        </mxCell>
        <mxCell id="3uuGS9DZFVvtzG-av5zq-3" style="edgeStyle=orthogonalEdgeStyle;rounded=0;orthogonalLoop=1;jettySize=auto;html=1;exitX=1;exitY=0.5;exitDx=0;exitDy=0;dashed=1;strokeWidth=2;" edge="1" parent="1" source="3uuGS9DZFVvtzG-av5zq-4" target="3uuGS9DZFVvtzG-av5zq-5">
          <mxGeometry relative="1" as="geometry" />
        </mxCell>
        <mxCell id="3uuGS9DZFVvtzG-av5zq-4" value="Login" style="ellipse;whiteSpace=wrap;html=1;" vertex="1" parent="1">
          <mxGeometry x="285" y="120" width="70" height="40" as="geometry" />
        </mxCell>
        <mxCell id="3uuGS9DZFVvtzG-av5zq-5" value="&lt;font style=&quot;font-size: 10px;&quot;&gt;Melihat Jadwal Mata Pelajaran&amp;nbsp;&lt;/font&gt;" style="ellipse;whiteSpace=wrap;html=1;" vertex="1" parent="1">
          <mxGeometry x="355" y="170" width="85" height="50" as="geometry" />
        </mxCell>
        <mxCell id="3uuGS9DZFVvtzG-av5zq-6" value="&lt;font style=&quot;font-size: 10px;&quot;&gt;Mendownload Materi dan MengirimTugas&lt;/font&gt;" style="ellipse;whiteSpace=wrap;html=1;" vertex="1" parent="1">
          <mxGeometry x="355" y="250" width="105" height="60" as="geometry" />
        </mxCell>
        <mxCell id="3uuGS9DZFVvtzG-av5zq-7" value="&lt;font style=&quot;font-size: 10px;&quot;&gt;Melihat dan Mendownload Nilai&lt;/font&gt;" style="ellipse;whiteSpace=wrap;html=1;" vertex="1" parent="1">
          <mxGeometry x="355" y="340" width="100" height="60" as="geometry" />
        </mxCell>
        <mxCell id="3uuGS9DZFVvtzG-av5zq-8" value="Logout" style="ellipse;whiteSpace=wrap;html=1;" vertex="1" parent="1">
          <mxGeometry x="285" y="410" width="70" height="40" as="geometry" />
        </mxCell>
        <mxCell id="3uuGS9DZFVvtzG-av5zq-9" value="" style="endArrow=none;html=1;rounded=0;exitX=0.5;exitY=0.5;exitDx=0;exitDy=0;exitPerimeter=0;entryX=0;entryY=0.5;entryDx=0;entryDy=0;strokeWidth=1;" edge="1" parent="1" source="3uuGS9DZFVvtzG-av5zq-1" target="3uuGS9DZFVvtzG-av5zq-4">
          <mxGeometry width="50" height="50" relative="1" as="geometry">
            <mxPoint x="300" y="300" as="sourcePoint" />
            <mxPoint x="350" y="250" as="targetPoint" />
          </mxGeometry>
        </mxCell>
        <mxCell id="3uuGS9DZFVvtzG-av5zq-10" value="" style="endArrow=none;html=1;rounded=0;entryX=0;entryY=0.5;entryDx=0;entryDy=0;exitX=0.5;exitY=0.5;exitDx=0;exitDy=0;exitPerimeter=0;" edge="1" parent="1" source="3uuGS9DZFVvtzG-av5zq-1" target="3uuGS9DZFVvtzG-av5zq-6">
          <mxGeometry width="50" height="50" relative="1" as="geometry">
            <mxPoint x="300" y="300" as="sourcePoint" />
            <mxPoint x="350" y="250" as="targetPoint" />
          </mxGeometry>
        </mxCell>
        <mxCell id="3uuGS9DZFVvtzG-av5zq-11" value="" style="endArrow=none;html=1;rounded=0;entryX=0;entryY=0.5;entryDx=0;entryDy=0;" edge="1" parent="1" target="3uuGS9DZFVvtzG-av5zq-5">
          <mxGeometry width="50" height="50" relative="1" as="geometry">
            <mxPoint x="175" y="280" as="sourcePoint" />
            <mxPoint x="350" y="250" as="targetPoint" />
          </mxGeometry>
        </mxCell>
        <mxCell id="3uuGS9DZFVvtzG-av5zq-12" value="" style="endArrow=none;html=1;rounded=0;entryX=0;entryY=0.5;entryDx=0;entryDy=0;exitX=0.5;exitY=0.5;exitDx=0;exitDy=0;exitPerimeter=0;" edge="1" parent="1" source="3uuGS9DZFVvtzG-av5zq-1" target="3uuGS9DZFVvtzG-av5zq-7">
          <mxGeometry width="50" height="50" relative="1" as="geometry">
            <mxPoint x="300" y="300" as="sourcePoint" />
            <mxPoint x="350" y="250" as="targetPoint" />
          </mxGeometry>
        </mxCell>
        <mxCell id="3uuGS9DZFVvtzG-av5zq-13" value="" style="endArrow=none;html=1;rounded=0;entryX=0;entryY=0.5;entryDx=0;entryDy=0;exitX=0.5;exitY=0.5;exitDx=0;exitDy=0;exitPerimeter=0;" edge="1" parent="1" source="3uuGS9DZFVvtzG-av5zq-1" target="3uuGS9DZFVvtzG-av5zq-8">
          <mxGeometry width="50" height="50" relative="1" as="geometry">
            <mxPoint x="300" y="300" as="sourcePoint" />
            <mxPoint x="350" y="250" as="targetPoint" />
          </mxGeometry>
        </mxCell>
        <mxCell id="3uuGS9DZFVvtzG-av5zq-14" value="&amp;lt;Include&amp;gt;" style="text;html=1;align=center;verticalAlign=middle;whiteSpace=wrap;rounded=0;" vertex="1" parent="1">
          <mxGeometry x="365" y="110" width="60" height="30" as="geometry" />
        </mxCell>
      </root>
    </mxGraphModel>
  </diagram>
  <diagram id="9oulwbCnyi0GqtHyv4Ug" name="Page-3">
    <mxGraphModel dx="934" dy="534" grid="1" gridSize="10" guides="1" tooltips="1" connect="1" arrows="1" fold="1" page="1" pageScale="1" pageWidth="850" pageHeight="1100" math="0" shadow="0">
      <root>
        <mxCell id="0" />
        <mxCell id="1" parent="0" />
        <mxCell id="bjg4-_WxVxk60DBqzceG-1" value="Admin" style="shape=umlActor;verticalLabelPosition=bottom;verticalAlign=top;html=1;outlineConnect=0;" vertex="1" parent="1">
          <mxGeometry x="210" y="210" width="30" height="60" as="geometry" />
        </mxCell>
        <mxCell id="bjg4-_WxVxk60DBqzceG-2" value="" style="whiteSpace=wrap;html=1;aspect=fixed;fillColor=none;" vertex="1" parent="1">
          <mxGeometry x="270" y="60" width="370" height="370" as="geometry" />
        </mxCell>
        <mxCell id="bjg4-_WxVxk60DBqzceG-3" style="edgeStyle=orthogonalEdgeStyle;rounded=0;orthogonalLoop=1;jettySize=auto;html=1;exitX=1;exitY=0.5;exitDx=0;exitDy=0;dashed=1;strokeWidth=2;" edge="1" parent="1" source="bjg4-_WxVxk60DBqzceG-4" target="bjg4-_WxVxk60DBqzceG-5">
          <mxGeometry relative="1" as="geometry" />
        </mxCell>
        <mxCell id="bjg4-_WxVxk60DBqzceG-4" value="Login/Register" style="ellipse;whiteSpace=wrap;html=1;" vertex="1" parent="1">
          <mxGeometry x="320" y="80" width="85" height="50" as="geometry" />
        </mxCell>
        <mxCell id="bjg4-_WxVxk60DBqzceG-5" value="&lt;font style=&quot;font-size: 10px;&quot;&gt;Membuat akun Guru dan Siswa&lt;/font&gt;" style="ellipse;whiteSpace=wrap;html=1;" vertex="1" parent="1">
          <mxGeometry x="405" y="130" width="85" height="50" as="geometry" />
        </mxCell>
        <mxCell id="bjg4-_WxVxk60DBqzceG-6" value="&lt;font style=&quot;font-size: 10px;&quot;&gt;Memasukan Jadwal Guru dan Siswa&lt;/font&gt;" style="ellipse;whiteSpace=wrap;html=1;" vertex="1" parent="1">
          <mxGeometry x="405" y="210" width="115" height="60" as="geometry" />
        </mxCell>
        <mxCell id="bjg4-_WxVxk60DBqzceG-7" value="&lt;span style=&quot;font-size: 10px;&quot;&gt;Rapot&lt;/span&gt;" style="ellipse;whiteSpace=wrap;html=1;" vertex="1" parent="1">
          <mxGeometry x="405" y="300" width="100" height="50" as="geometry" />
        </mxCell>
        <mxCell id="bjg4-_WxVxk60DBqzceG-8" value="Logout" style="ellipse;whiteSpace=wrap;html=1;" vertex="1" parent="1">
          <mxGeometry x="335" y="370" width="70" height="40" as="geometry" />
        </mxCell>
        <mxCell id="bjg4-_WxVxk60DBqzceG-9" value="" style="endArrow=none;html=1;rounded=0;exitX=0.5;exitY=0.5;exitDx=0;exitDy=0;exitPerimeter=0;entryX=0;entryY=0.5;entryDx=0;entryDy=0;strokeWidth=1;" edge="1" parent="1" source="bjg4-_WxVxk60DBqzceG-1" target="bjg4-_WxVxk60DBqzceG-4">
          <mxGeometry width="50" height="50" relative="1" as="geometry">
            <mxPoint x="350" y="260" as="sourcePoint" />
            <mxPoint x="400" y="210" as="targetPoint" />
          </mxGeometry>
        </mxCell>
        <mxCell id="bjg4-_WxVxk60DBqzceG-10" value="" style="endArrow=none;html=1;rounded=0;entryX=0;entryY=0.5;entryDx=0;entryDy=0;exitX=0.5;exitY=0.5;exitDx=0;exitDy=0;exitPerimeter=0;" edge="1" parent="1" source="bjg4-_WxVxk60DBqzceG-1" target="bjg4-_WxVxk60DBqzceG-6">
          <mxGeometry width="50" height="50" relative="1" as="geometry">
            <mxPoint x="350" y="260" as="sourcePoint" />
            <mxPoint x="400" y="210" as="targetPoint" />
          </mxGeometry>
        </mxCell>
        <mxCell id="bjg4-_WxVxk60DBqzceG-11" value="" style="endArrow=none;html=1;rounded=0;entryX=0;entryY=0.5;entryDx=0;entryDy=0;" edge="1" parent="1" target="bjg4-_WxVxk60DBqzceG-5">
          <mxGeometry width="50" height="50" relative="1" as="geometry">
            <mxPoint x="225" y="240" as="sourcePoint" />
            <mxPoint x="400" y="210" as="targetPoint" />
          </mxGeometry>
        </mxCell>
        <mxCell id="bjg4-_WxVxk60DBqzceG-12" value="" style="endArrow=none;html=1;rounded=0;entryX=0;entryY=0.5;entryDx=0;entryDy=0;exitX=0.5;exitY=0.5;exitDx=0;exitDy=0;exitPerimeter=0;" edge="1" parent="1" source="bjg4-_WxVxk60DBqzceG-1" target="bjg4-_WxVxk60DBqzceG-7">
          <mxGeometry width="50" height="50" relative="1" as="geometry">
            <mxPoint x="350" y="260" as="sourcePoint" />
            <mxPoint x="400" y="210" as="targetPoint" />
          </mxGeometry>
        </mxCell>
        <mxCell id="bjg4-_WxVxk60DBqzceG-13" value="" style="endArrow=none;html=1;rounded=0;entryX=0;entryY=0.5;entryDx=0;entryDy=0;exitX=0.5;exitY=0.5;exitDx=0;exitDy=0;exitPerimeter=0;" edge="1" parent="1" source="bjg4-_WxVxk60DBqzceG-1" target="bjg4-_WxVxk60DBqzceG-8">
          <mxGeometry width="50" height="50" relative="1" as="geometry">
            <mxPoint x="350" y="260" as="sourcePoint" />
            <mxPoint x="400" y="210" as="targetPoint" />
          </mxGeometry>
        </mxCell>
        <mxCell id="bjg4-_WxVxk60DBqzceG-14" value="&amp;lt;Include&amp;gt;" style="text;html=1;align=center;verticalAlign=middle;whiteSpace=wrap;rounded=0;" vertex="1" parent="1">
          <mxGeometry x="415" y="70" width="60" height="30" as="geometry" />
        </mxCell>
      </root>
    </mxGraphModel>
  </diagram>
  <diagram id="iPH0BNhLH9ZKWZ0oqacN" name="Page-4">
    <mxGraphModel dx="1134" dy="649" grid="1" gridSize="10" guides="1" tooltips="1" connect="1" arrows="1" fold="1" page="1" pageScale="1" pageWidth="850" pageHeight="1100" math="0" shadow="0">
      <root>
        <mxCell id="0" />
        <mxCell id="1" parent="0" />
        <mxCell id="c-vUXaS4341PEAUmBNcy-11" style="edgeStyle=orthogonalEdgeStyle;rounded=0;orthogonalLoop=1;jettySize=auto;html=1;exitX=0.5;exitY=1;exitDx=0;exitDy=0;entryX=0.5;entryY=0;entryDx=0;entryDy=0;" edge="1" parent="1" source="c-vUXaS4341PEAUmBNcy-1" target="c-vUXaS4341PEAUmBNcy-3">
          <mxGeometry relative="1" as="geometry" />
        </mxCell>
        <mxCell id="c-vUXaS4341PEAUmBNcy-1" value="" style="ellipse;whiteSpace=wrap;html=1;aspect=fixed;fillStyle=solid;fillColor=#000000;" vertex="1" parent="1">
          <mxGeometry x="400" y="90" width="80" height="80" as="geometry" />
        </mxCell>
        <mxCell id="c-vUXaS4341PEAUmBNcy-12" style="edgeStyle=orthogonalEdgeStyle;rounded=0;orthogonalLoop=1;jettySize=auto;html=1;exitX=0.5;exitY=1;exitDx=0;exitDy=0;entryX=0.5;entryY=0;entryDx=0;entryDy=0;" edge="1" parent="1" source="c-vUXaS4341PEAUmBNcy-3" target="c-vUXaS4341PEAUmBNcy-5">
          <mxGeometry relative="1" as="geometry" />
        </mxCell>
        <mxCell id="c-vUXaS4341PEAUmBNcy-3" value="Memasuki halaman Utama LMS" style="rounded=1;whiteSpace=wrap;html=1;" vertex="1" parent="1">
          <mxGeometry x="380" y="210" width="120" height="60" as="geometry" />
        </mxCell>
        <mxCell id="c-vUXaS4341PEAUmBNcy-13" style="edgeStyle=orthogonalEdgeStyle;rounded=0;orthogonalLoop=1;jettySize=auto;html=1;exitX=0.5;exitY=1;exitDx=0;exitDy=0;entryX=0.5;entryY=0;entryDx=0;entryDy=0;" edge="1" parent="1" source="c-vUXaS4341PEAUmBNcy-4" target="c-vUXaS4341PEAUmBNcy-9">
          <mxGeometry relative="1" as="geometry" />
        </mxCell>
        <mxCell id="c-vUXaS4341PEAUmBNcy-15" style="edgeStyle=orthogonalEdgeStyle;rounded=0;orthogonalLoop=1;jettySize=auto;html=1;exitX=1;exitY=0.5;exitDx=0;exitDy=0;entryX=1;entryY=0.5;entryDx=0;entryDy=0;" edge="1" parent="1" source="c-vUXaS4341PEAUmBNcy-4" target="c-vUXaS4341PEAUmBNcy-3">
          <mxGeometry relative="1" as="geometry">
            <Array as="points">
              <mxPoint x="590" y="440" />
              <mxPoint x="590" y="240" />
            </Array>
          </mxGeometry>
        </mxCell>
        <mxCell id="c-vUXaS4341PEAUmBNcy-4" value="" style="rhombus;whiteSpace=wrap;html=1;" vertex="1" parent="1">
          <mxGeometry x="400" y="400" width="80" height="80" as="geometry" />
        </mxCell>
        <mxCell id="c-vUXaS4341PEAUmBNcy-14" style="edgeStyle=orthogonalEdgeStyle;rounded=0;orthogonalLoop=1;jettySize=auto;html=1;exitX=0.5;exitY=1;exitDx=0;exitDy=0;" edge="1" parent="1" source="c-vUXaS4341PEAUmBNcy-5" target="c-vUXaS4341PEAUmBNcy-4">
          <mxGeometry relative="1" as="geometry" />
        </mxCell>
        <mxCell id="c-vUXaS4341PEAUmBNcy-5" value="Login" style="rounded=1;whiteSpace=wrap;html=1;" vertex="1" parent="1">
          <mxGeometry x="380" y="310" width="120" height="60" as="geometry" />
        </mxCell>
        <mxCell id="c-vUXaS4341PEAUmBNcy-16" style="edgeStyle=orthogonalEdgeStyle;rounded=0;orthogonalLoop=1;jettySize=auto;html=1;exitX=0.5;exitY=1;exitDx=0;exitDy=0;entryX=0.5;entryY=0;entryDx=0;entryDy=0;" edge="1" parent="1" source="c-vUXaS4341PEAUmBNcy-9" target="c-vUXaS4341PEAUmBNcy-10">
          <mxGeometry relative="1" as="geometry" />
        </mxCell>
        <mxCell id="c-vUXaS4341PEAUmBNcy-9" value="Memasuki halaman Guru" style="rounded=1;whiteSpace=wrap;html=1;" vertex="1" parent="1">
          <mxGeometry x="380" y="530" width="120" height="60" as="geometry" />
        </mxCell>
        <mxCell id="c-vUXaS4341PEAUmBNcy-10" value="" style="ellipse;whiteSpace=wrap;html=1;aspect=fixed;fillStyle=solid;fillColor=#000000;" vertex="1" parent="1">
          <mxGeometry x="400" y="640" width="80" height="80" as="geometry" />
        </mxCell>
        <mxCell id="c-vUXaS4341PEAUmBNcy-17" value="Tidak Mempunyai Akun" style="text;html=1;align=center;verticalAlign=middle;whiteSpace=wrap;rounded=0;" vertex="1" parent="1">
          <mxGeometry x="500" y="330" width="90" height="30" as="geometry" />
        </mxCell>
        <mxCell id="c-vUXaS4341PEAUmBNcy-19" value="&amp;nbsp;Mempunyai Akun" style="text;html=1;align=center;verticalAlign=middle;whiteSpace=wrap;rounded=0;" vertex="1" parent="1">
          <mxGeometry x="350" y="490" width="90" height="30" as="geometry" />
        </mxCell>
      </root>
    </mxGraphModel>
  </diagram>
  <diagram id="26lHb8Stnt68sdEdswrD" name="Page-5">
    <mxGraphModel dx="1059" dy="605" grid="1" gridSize="10" guides="1" tooltips="1" connect="1" arrows="1" fold="1" page="1" pageScale="1" pageWidth="850" pageHeight="1100" math="0" shadow="0">
      <root>
        <mxCell id="0" />
        <mxCell id="1" parent="0" />
        <mxCell id="URxmRo61ata5z7i_eCAr-1" style="edgeStyle=orthogonalEdgeStyle;rounded=0;orthogonalLoop=1;jettySize=auto;html=1;exitX=0.5;exitY=1;exitDx=0;exitDy=0;entryX=0.5;entryY=0;entryDx=0;entryDy=0;" edge="1" parent="1" source="URxmRo61ata5z7i_eCAr-2" target="URxmRo61ata5z7i_eCAr-4">
          <mxGeometry relative="1" as="geometry" />
        </mxCell>
        <mxCell id="URxmRo61ata5z7i_eCAr-2" value="" style="ellipse;whiteSpace=wrap;html=1;aspect=fixed;fillColor=#000000;" vertex="1" parent="1">
          <mxGeometry x="400" y="90" width="80" height="80" as="geometry" />
        </mxCell>
        <mxCell id="URxmRo61ata5z7i_eCAr-3" style="edgeStyle=orthogonalEdgeStyle;rounded=0;orthogonalLoop=1;jettySize=auto;html=1;exitX=0.5;exitY=1;exitDx=0;exitDy=0;entryX=0.5;entryY=0;entryDx=0;entryDy=0;" edge="1" parent="1" source="URxmRo61ata5z7i_eCAr-4" target="URxmRo61ata5z7i_eCAr-9">
          <mxGeometry relative="1" as="geometry" />
        </mxCell>
        <mxCell id="URxmRo61ata5z7i_eCAr-4" value="Memasuki halaman Guru" style="rounded=1;whiteSpace=wrap;html=1;" vertex="1" parent="1">
          <mxGeometry x="380" y="210" width="120" height="60" as="geometry" />
        </mxCell>
        <mxCell id="URxmRo61ata5z7i_eCAr-8" style="edgeStyle=orthogonalEdgeStyle;rounded=0;orthogonalLoop=1;jettySize=auto;html=1;exitX=0.5;exitY=1;exitDx=0;exitDy=0;" edge="1" parent="1" source="URxmRo61ata5z7i_eCAr-9">
          <mxGeometry relative="1" as="geometry">
            <mxPoint x="440.0666666666666" y="400.0666666666666" as="targetPoint" />
          </mxGeometry>
        </mxCell>
        <mxCell id="URxmRo61ata5z7i_eCAr-9" value="Melihat jadwal" style="rounded=1;whiteSpace=wrap;html=1;" vertex="1" parent="1">
          <mxGeometry x="380" y="310" width="120" height="60" as="geometry" />
        </mxCell>
        <mxCell id="URxmRo61ata5z7i_eCAr-10" style="edgeStyle=orthogonalEdgeStyle;rounded=0;orthogonalLoop=1;jettySize=auto;html=1;exitX=0.5;exitY=1;exitDx=0;exitDy=0;entryX=0.5;entryY=0;entryDx=0;entryDy=0;" edge="1" parent="1" source="URxmRo61ata5z7i_eCAr-11" target="URxmRo61ata5z7i_eCAr-12">
          <mxGeometry relative="1" as="geometry" />
        </mxCell>
        <mxCell id="URxmRo61ata5z7i_eCAr-11" value="Memasukan Nilai" style="rounded=1;whiteSpace=wrap;html=1;" vertex="1" parent="1">
          <mxGeometry x="380" y="500" width="120" height="60" as="geometry" />
        </mxCell>
        <mxCell id="URxmRo61ata5z7i_eCAr-12" value="" style="ellipse;whiteSpace=wrap;html=1;aspect=fixed;fillColor=#000000;" vertex="1" parent="1">
          <mxGeometry x="400" y="600" width="80" height="80" as="geometry" />
        </mxCell>
        <mxCell id="URxmRo61ata5z7i_eCAr-17" style="edgeStyle=orthogonalEdgeStyle;rounded=0;orthogonalLoop=1;jettySize=auto;html=1;exitX=0.5;exitY=1;exitDx=0;exitDy=0;entryX=0.5;entryY=0;entryDx=0;entryDy=0;" edge="1" parent="1" source="URxmRo61ata5z7i_eCAr-15" target="URxmRo61ata5z7i_eCAr-11">
          <mxGeometry relative="1" as="geometry" />
        </mxCell>
        <mxCell id="URxmRo61ata5z7i_eCAr-15" value="Menambah materi dan tugas" style="rounded=1;whiteSpace=wrap;html=1;" vertex="1" parent="1">
          <mxGeometry x="380" y="400" width="120" height="60" as="geometry" />
        </mxCell>
      </root>
    </mxGraphModel>
  </diagram>
  <diagram id="wOeEyAqHZm1_vqvFyaxD" name="Page-6">
    <mxGraphModel dx="1323" dy="757" grid="1" gridSize="10" guides="1" tooltips="1" connect="1" arrows="1" fold="1" page="1" pageScale="1" pageWidth="850" pageHeight="1100" math="0" shadow="0">
      <root>
        <mxCell id="0" />
        <mxCell id="1" parent="0" />
        <mxCell id="Y0-coM8MBM48VwN2ePBS-1" style="edgeStyle=orthogonalEdgeStyle;rounded=0;orthogonalLoop=1;jettySize=auto;html=1;exitX=0.5;exitY=1;exitDx=0;exitDy=0;entryX=0.5;entryY=0;entryDx=0;entryDy=0;" edge="1" parent="1" source="Y0-coM8MBM48VwN2ePBS-2" target="Y0-coM8MBM48VwN2ePBS-4">
          <mxGeometry relative="1" as="geometry" />
        </mxCell>
        <mxCell id="Y0-coM8MBM48VwN2ePBS-2" value="" style="ellipse;whiteSpace=wrap;html=1;aspect=fixed;fillColor=#000000;" vertex="1" parent="1">
          <mxGeometry x="400" y="90" width="80" height="80" as="geometry" />
        </mxCell>
        <mxCell id="Y0-coM8MBM48VwN2ePBS-3" style="edgeStyle=orthogonalEdgeStyle;rounded=0;orthogonalLoop=1;jettySize=auto;html=1;exitX=0.5;exitY=1;exitDx=0;exitDy=0;entryX=0.5;entryY=0;entryDx=0;entryDy=0;" edge="1" parent="1" source="Y0-coM8MBM48VwN2ePBS-4" target="Y0-coM8MBM48VwN2ePBS-6">
          <mxGeometry relative="1" as="geometry" />
        </mxCell>
        <mxCell id="Y0-coM8MBM48VwN2ePBS-4" value="Memasuki halaman Siswa" style="rounded=1;whiteSpace=wrap;html=1;" vertex="1" parent="1">
          <mxGeometry x="380" y="210" width="120" height="60" as="geometry" />
        </mxCell>
        <mxCell id="Y0-coM8MBM48VwN2ePBS-5" style="edgeStyle=orthogonalEdgeStyle;rounded=0;orthogonalLoop=1;jettySize=auto;html=1;exitX=0.5;exitY=1;exitDx=0;exitDy=0;" edge="1" parent="1" source="Y0-coM8MBM48VwN2ePBS-6">
          <mxGeometry relative="1" as="geometry">
            <mxPoint x="440.0666666666666" y="400.0666666666666" as="targetPoint" />
          </mxGeometry>
        </mxCell>
        <mxCell id="Y0-coM8MBM48VwN2ePBS-6" value="Melihat jadwal" style="rounded=1;whiteSpace=wrap;html=1;" vertex="1" parent="1">
          <mxGeometry x="380" y="310" width="120" height="60" as="geometry" />
        </mxCell>
        <mxCell id="Y0-coM8MBM48VwN2ePBS-7" style="edgeStyle=orthogonalEdgeStyle;rounded=0;orthogonalLoop=1;jettySize=auto;html=1;exitX=0.5;exitY=1;exitDx=0;exitDy=0;entryX=0.5;entryY=0;entryDx=0;entryDy=0;" edge="1" parent="1" source="Y0-coM8MBM48VwN2ePBS-8" target="Y0-coM8MBM48VwN2ePBS-9">
          <mxGeometry relative="1" as="geometry" />
        </mxCell>
        <mxCell id="Y0-coM8MBM48VwN2ePBS-8" value="Melihat dan Mendownload Nilai" style="rounded=1;whiteSpace=wrap;html=1;" vertex="1" parent="1">
          <mxGeometry x="380" y="500" width="120" height="60" as="geometry" />
        </mxCell>
        <mxCell id="Y0-coM8MBM48VwN2ePBS-9" value="" style="ellipse;whiteSpace=wrap;html=1;aspect=fixed;fillColor=#000000;" vertex="1" parent="1">
          <mxGeometry x="400" y="600" width="80" height="80" as="geometry" />
        </mxCell>
        <mxCell id="Y0-coM8MBM48VwN2ePBS-10" style="edgeStyle=orthogonalEdgeStyle;rounded=0;orthogonalLoop=1;jettySize=auto;html=1;exitX=0.5;exitY=1;exitDx=0;exitDy=0;entryX=0.5;entryY=0;entryDx=0;entryDy=0;" edge="1" parent="1" source="Y0-coM8MBM48VwN2ePBS-11" target="Y0-coM8MBM48VwN2ePBS-8">
          <mxGeometry relative="1" as="geometry" />
        </mxCell>
        <mxCell id="Y0-coM8MBM48VwN2ePBS-11" value="Mendownload materi dan mengirim tugas" style="rounded=1;whiteSpace=wrap;html=1;" vertex="1" parent="1">
          <mxGeometry x="380" y="400" width="120" height="60" as="geometry" />
        </mxCell>
      </root>
    </mxGraphModel>
  </diagram>
  <diagram id="-WSGNlpPrAWr_9UK1nmH" name="Page-7">
    <mxGraphModel dx="1588" dy="908" grid="1" gridSize="10" guides="1" tooltips="1" connect="1" arrows="1" fold="1" page="1" pageScale="1" pageWidth="850" pageHeight="1100" math="0" shadow="0">
      <root>
        <mxCell id="0" />
        <mxCell id="1" parent="0" />
        <mxCell id="sI42-ZW5YOarVqejKMh9-1" style="edgeStyle=orthogonalEdgeStyle;rounded=0;orthogonalLoop=1;jettySize=auto;html=1;exitX=0.5;exitY=1;exitDx=0;exitDy=0;entryX=0.5;entryY=0;entryDx=0;entryDy=0;" edge="1" parent="1" source="sI42-ZW5YOarVqejKMh9-2" target="sI42-ZW5YOarVqejKMh9-4">
          <mxGeometry relative="1" as="geometry" />
        </mxCell>
        <mxCell id="sI42-ZW5YOarVqejKMh9-2" value="" style="ellipse;whiteSpace=wrap;html=1;aspect=fixed;fillColor=#000000;" vertex="1" parent="1">
          <mxGeometry x="410" y="100" width="80" height="80" as="geometry" />
        </mxCell>
        <mxCell id="sI42-ZW5YOarVqejKMh9-3" style="edgeStyle=orthogonalEdgeStyle;rounded=0;orthogonalLoop=1;jettySize=auto;html=1;exitX=0.5;exitY=1;exitDx=0;exitDy=0;entryX=0.5;entryY=0;entryDx=0;entryDy=0;" edge="1" parent="1" source="sI42-ZW5YOarVqejKMh9-4" target="sI42-ZW5YOarVqejKMh9-9">
          <mxGeometry relative="1" as="geometry" />
        </mxCell>
        <mxCell id="sI42-ZW5YOarVqejKMh9-4" value="Memasuki halaman Utama LMS" style="rounded=1;whiteSpace=wrap;html=1;" vertex="1" parent="1">
          <mxGeometry x="390" y="220" width="120" height="60" as="geometry" />
        </mxCell>
        <mxCell id="sI42-ZW5YOarVqejKMh9-5" style="edgeStyle=orthogonalEdgeStyle;rounded=0;orthogonalLoop=1;jettySize=auto;html=1;exitX=0.5;exitY=1;exitDx=0;exitDy=0;entryX=0.5;entryY=0;entryDx=0;entryDy=0;" edge="1" parent="1" source="sI42-ZW5YOarVqejKMh9-7" target="sI42-ZW5YOarVqejKMh9-11">
          <mxGeometry relative="1" as="geometry" />
        </mxCell>
        <mxCell id="sI42-ZW5YOarVqejKMh9-18" style="edgeStyle=orthogonalEdgeStyle;rounded=0;orthogonalLoop=1;jettySize=auto;html=1;exitX=1;exitY=0.5;exitDx=0;exitDy=0;entryX=0.5;entryY=1;entryDx=0;entryDy=0;" edge="1" parent="1" source="sI42-ZW5YOarVqejKMh9-7" target="sI42-ZW5YOarVqejKMh9-17">
          <mxGeometry relative="1" as="geometry" />
        </mxCell>
        <mxCell id="sI42-ZW5YOarVqejKMh9-7" value="" style="rhombus;whiteSpace=wrap;html=1;" vertex="1" parent="1">
          <mxGeometry x="410" y="410" width="80" height="80" as="geometry" />
        </mxCell>
        <mxCell id="sI42-ZW5YOarVqejKMh9-8" style="edgeStyle=orthogonalEdgeStyle;rounded=0;orthogonalLoop=1;jettySize=auto;html=1;exitX=0.5;exitY=1;exitDx=0;exitDy=0;" edge="1" parent="1" source="sI42-ZW5YOarVqejKMh9-9" target="sI42-ZW5YOarVqejKMh9-7">
          <mxGeometry relative="1" as="geometry" />
        </mxCell>
        <mxCell id="sI42-ZW5YOarVqejKMh9-9" value="Login" style="rounded=1;whiteSpace=wrap;html=1;" vertex="1" parent="1">
          <mxGeometry x="390" y="320" width="120" height="60" as="geometry" />
        </mxCell>
        <mxCell id="sI42-ZW5YOarVqejKMh9-10" style="edgeStyle=orthogonalEdgeStyle;rounded=0;orthogonalLoop=1;jettySize=auto;html=1;exitX=0.5;exitY=1;exitDx=0;exitDy=0;entryX=0.5;entryY=0;entryDx=0;entryDy=0;" edge="1" parent="1" source="sI42-ZW5YOarVqejKMh9-11" target="sI42-ZW5YOarVqejKMh9-12">
          <mxGeometry relative="1" as="geometry" />
        </mxCell>
        <mxCell id="sI42-ZW5YOarVqejKMh9-11" value="Memasuki halaman Admin" style="rounded=1;whiteSpace=wrap;html=1;" vertex="1" parent="1">
          <mxGeometry x="390" y="540" width="120" height="60" as="geometry" />
        </mxCell>
        <mxCell id="sI42-ZW5YOarVqejKMh9-12" value="" style="ellipse;whiteSpace=wrap;html=1;aspect=fixed;fillColor=#000000;" vertex="1" parent="1">
          <mxGeometry x="410" y="650" width="80" height="80" as="geometry" />
        </mxCell>
        <mxCell id="sI42-ZW5YOarVqejKMh9-13" value="Tidak Mempunyai Akun" style="text;html=1;align=center;verticalAlign=middle;whiteSpace=wrap;rounded=0;" vertex="1" parent="1">
          <mxGeometry x="550" y="410" width="90" height="30" as="geometry" />
        </mxCell>
        <mxCell id="sI42-ZW5YOarVqejKMh9-14" value="&amp;nbsp;Mempunyai Akun" style="text;html=1;align=center;verticalAlign=middle;whiteSpace=wrap;rounded=0;" vertex="1" parent="1">
          <mxGeometry x="360" y="500" width="90" height="30" as="geometry" />
        </mxCell>
        <mxCell id="sI42-ZW5YOarVqejKMh9-19" style="edgeStyle=orthogonalEdgeStyle;rounded=0;orthogonalLoop=1;jettySize=auto;html=1;exitX=0;exitY=0.5;exitDx=0;exitDy=0;entryX=1;entryY=0.5;entryDx=0;entryDy=0;" edge="1" parent="1" source="sI42-ZW5YOarVqejKMh9-17" target="sI42-ZW5YOarVqejKMh9-9">
          <mxGeometry relative="1" as="geometry" />
        </mxCell>
        <mxCell id="sI42-ZW5YOarVqejKMh9-17" value="Register" style="rounded=1;whiteSpace=wrap;html=1;" vertex="1" parent="1">
          <mxGeometry x="620" y="320" width="120" height="60" as="geometry" />
        </mxCell>
      </root>
    </mxGraphModel>
  </diagram>
  <diagram id="Nmank-5HHTtpIRM_BWIA" name="Page-8">
    <mxGraphModel dx="1134" dy="649" grid="1" gridSize="10" guides="1" tooltips="1" connect="1" arrows="1" fold="1" page="1" pageScale="1" pageWidth="850" pageHeight="1100" math="0" shadow="0">
      <root>
        <mxCell id="0" />
        <mxCell id="1" parent="0" />
        <mxCell id="UlPD3WvhxOja1xUCcW1c-1" style="edgeStyle=orthogonalEdgeStyle;rounded=0;orthogonalLoop=1;jettySize=auto;html=1;exitX=0.5;exitY=1;exitDx=0;exitDy=0;entryX=0.5;entryY=0;entryDx=0;entryDy=0;" edge="1" parent="1" source="UlPD3WvhxOja1xUCcW1c-2" target="UlPD3WvhxOja1xUCcW1c-4">
          <mxGeometry relative="1" as="geometry" />
        </mxCell>
        <mxCell id="UlPD3WvhxOja1xUCcW1c-2" value="" style="ellipse;whiteSpace=wrap;html=1;aspect=fixed;fillColor=#000000;" vertex="1" parent="1">
          <mxGeometry x="400" y="90" width="80" height="80" as="geometry" />
        </mxCell>
        <mxCell id="UlPD3WvhxOja1xUCcW1c-3" style="edgeStyle=orthogonalEdgeStyle;rounded=0;orthogonalLoop=1;jettySize=auto;html=1;exitX=0.5;exitY=1;exitDx=0;exitDy=0;entryX=0.5;entryY=0;entryDx=0;entryDy=0;" edge="1" parent="1" source="UlPD3WvhxOja1xUCcW1c-4" target="UlPD3WvhxOja1xUCcW1c-9">
          <mxGeometry relative="1" as="geometry" />
        </mxCell>
        <mxCell id="UlPD3WvhxOja1xUCcW1c-4" value="Memasuki halaman Utama LMS" style="rounded=1;whiteSpace=wrap;html=1;" vertex="1" parent="1">
          <mxGeometry x="380" y="210" width="120" height="60" as="geometry" />
        </mxCell>
        <mxCell id="UlPD3WvhxOja1xUCcW1c-5" style="edgeStyle=orthogonalEdgeStyle;rounded=0;orthogonalLoop=1;jettySize=auto;html=1;exitX=0.5;exitY=1;exitDx=0;exitDy=0;entryX=0.5;entryY=0;entryDx=0;entryDy=0;" edge="1" parent="1" source="UlPD3WvhxOja1xUCcW1c-7" target="UlPD3WvhxOja1xUCcW1c-11">
          <mxGeometry relative="1" as="geometry" />
        </mxCell>
        <mxCell id="UlPD3WvhxOja1xUCcW1c-6" style="edgeStyle=orthogonalEdgeStyle;rounded=0;orthogonalLoop=1;jettySize=auto;html=1;exitX=1;exitY=0.5;exitDx=0;exitDy=0;entryX=1;entryY=0.5;entryDx=0;entryDy=0;" edge="1" parent="1" source="UlPD3WvhxOja1xUCcW1c-7" target="UlPD3WvhxOja1xUCcW1c-4">
          <mxGeometry relative="1" as="geometry">
            <Array as="points">
              <mxPoint x="590" y="440" />
              <mxPoint x="590" y="240" />
            </Array>
          </mxGeometry>
        </mxCell>
        <mxCell id="UlPD3WvhxOja1xUCcW1c-7" value="" style="rhombus;whiteSpace=wrap;html=1;" vertex="1" parent="1">
          <mxGeometry x="400" y="400" width="80" height="80" as="geometry" />
        </mxCell>
        <mxCell id="UlPD3WvhxOja1xUCcW1c-8" style="edgeStyle=orthogonalEdgeStyle;rounded=0;orthogonalLoop=1;jettySize=auto;html=1;exitX=0.5;exitY=1;exitDx=0;exitDy=0;" edge="1" parent="1" source="UlPD3WvhxOja1xUCcW1c-9" target="UlPD3WvhxOja1xUCcW1c-7">
          <mxGeometry relative="1" as="geometry" />
        </mxCell>
        <mxCell id="UlPD3WvhxOja1xUCcW1c-9" value="Login" style="rounded=1;whiteSpace=wrap;html=1;" vertex="1" parent="1">
          <mxGeometry x="380" y="310" width="120" height="60" as="geometry" />
        </mxCell>
        <mxCell id="UlPD3WvhxOja1xUCcW1c-10" style="edgeStyle=orthogonalEdgeStyle;rounded=0;orthogonalLoop=1;jettySize=auto;html=1;exitX=0.5;exitY=1;exitDx=0;exitDy=0;entryX=0.5;entryY=0;entryDx=0;entryDy=0;" edge="1" parent="1" source="UlPD3WvhxOja1xUCcW1c-11" target="UlPD3WvhxOja1xUCcW1c-12">
          <mxGeometry relative="1" as="geometry" />
        </mxCell>
        <mxCell id="UlPD3WvhxOja1xUCcW1c-11" value="Memasuki halaman Siswa" style="rounded=1;whiteSpace=wrap;html=1;" vertex="1" parent="1">
          <mxGeometry x="380" y="530" width="120" height="60" as="geometry" />
        </mxCell>
        <mxCell id="UlPD3WvhxOja1xUCcW1c-12" value="" style="ellipse;whiteSpace=wrap;html=1;aspect=fixed;fillColor=#000000;" vertex="1" parent="1">
          <mxGeometry x="400" y="640" width="80" height="80" as="geometry" />
        </mxCell>
        <mxCell id="UlPD3WvhxOja1xUCcW1c-13" value="Tidak Mempunyai Akun" style="text;html=1;align=center;verticalAlign=middle;whiteSpace=wrap;rounded=0;" vertex="1" parent="1">
          <mxGeometry x="500" y="330" width="90" height="30" as="geometry" />
        </mxCell>
        <mxCell id="UlPD3WvhxOja1xUCcW1c-14" value="&amp;nbsp;Mempunyai Akun" style="text;html=1;align=center;verticalAlign=middle;whiteSpace=wrap;rounded=0;" vertex="1" parent="1">
          <mxGeometry x="350" y="490" width="90" height="30" as="geometry" />
        </mxCell>
      </root>
    </mxGraphModel>
  </diagram>
  <diagram id="GGr1ifAGEAh6k1odnTU-" name="Page-9">
    <mxGraphModel dx="1134" dy="649" grid="1" gridSize="10" guides="1" tooltips="1" connect="1" arrows="1" fold="1" page="1" pageScale="1" pageWidth="850" pageHeight="1100" math="0" shadow="0">
      <root>
        <mxCell id="0" />
        <mxCell id="1" parent="0" />
        <mxCell id="ceN-aV_WXbI2wbzoi2N9-1" style="edgeStyle=orthogonalEdgeStyle;rounded=0;orthogonalLoop=1;jettySize=auto;html=1;exitX=0.5;exitY=1;exitDx=0;exitDy=0;entryX=0.5;entryY=0;entryDx=0;entryDy=0;" edge="1" parent="1" source="ceN-aV_WXbI2wbzoi2N9-2" target="ceN-aV_WXbI2wbzoi2N9-4">
          <mxGeometry relative="1" as="geometry" />
        </mxCell>
        <mxCell id="ceN-aV_WXbI2wbzoi2N9-2" value="" style="ellipse;whiteSpace=wrap;html=1;aspect=fixed;fillColor=#000000;" vertex="1" parent="1">
          <mxGeometry x="400" y="90" width="80" height="80" as="geometry" />
        </mxCell>
        <mxCell id="ceN-aV_WXbI2wbzoi2N9-3" style="edgeStyle=orthogonalEdgeStyle;rounded=0;orthogonalLoop=1;jettySize=auto;html=1;exitX=0.5;exitY=1;exitDx=0;exitDy=0;entryX=0.5;entryY=0;entryDx=0;entryDy=0;" edge="1" parent="1" source="ceN-aV_WXbI2wbzoi2N9-4" target="ceN-aV_WXbI2wbzoi2N9-6">
          <mxGeometry relative="1" as="geometry" />
        </mxCell>
        <mxCell id="ceN-aV_WXbI2wbzoi2N9-4" value="Memasuki halaman Admin" style="rounded=1;whiteSpace=wrap;html=1;" vertex="1" parent="1">
          <mxGeometry x="380" y="210" width="120" height="60" as="geometry" />
        </mxCell>
        <mxCell id="ceN-aV_WXbI2wbzoi2N9-5" style="edgeStyle=orthogonalEdgeStyle;rounded=0;orthogonalLoop=1;jettySize=auto;html=1;exitX=0.5;exitY=1;exitDx=0;exitDy=0;" edge="1" parent="1" source="ceN-aV_WXbI2wbzoi2N9-6">
          <mxGeometry relative="1" as="geometry">
            <mxPoint x="440.0666666666666" y="400.0666666666666" as="targetPoint" />
          </mxGeometry>
        </mxCell>
        <mxCell id="ceN-aV_WXbI2wbzoi2N9-6" value="Membuat Akun Login Guru dan Siswa" style="rounded=1;whiteSpace=wrap;html=1;" vertex="1" parent="1">
          <mxGeometry x="380" y="310" width="120" height="60" as="geometry" />
        </mxCell>
        <mxCell id="ceN-aV_WXbI2wbzoi2N9-7" style="edgeStyle=orthogonalEdgeStyle;rounded=0;orthogonalLoop=1;jettySize=auto;html=1;exitX=0.5;exitY=1;exitDx=0;exitDy=0;entryX=0.5;entryY=0;entryDx=0;entryDy=0;" edge="1" parent="1" source="ceN-aV_WXbI2wbzoi2N9-8" target="ceN-aV_WXbI2wbzoi2N9-9">
          <mxGeometry relative="1" as="geometry" />
        </mxCell>
        <mxCell id="ceN-aV_WXbI2wbzoi2N9-8" value="Rapot" style="rounded=1;whiteSpace=wrap;html=1;" vertex="1" parent="1">
          <mxGeometry x="380" y="500" width="120" height="60" as="geometry" />
        </mxCell>
        <mxCell id="ceN-aV_WXbI2wbzoi2N9-9" value="" style="ellipse;whiteSpace=wrap;html=1;aspect=fixed;fillColor=#000000;" vertex="1" parent="1">
          <mxGeometry x="400" y="600" width="80" height="80" as="geometry" />
        </mxCell>
        <mxCell id="ceN-aV_WXbI2wbzoi2N9-10" style="edgeStyle=orthogonalEdgeStyle;rounded=0;orthogonalLoop=1;jettySize=auto;html=1;exitX=0.5;exitY=1;exitDx=0;exitDy=0;entryX=0.5;entryY=0;entryDx=0;entryDy=0;" edge="1" parent="1" source="ceN-aV_WXbI2wbzoi2N9-11" target="ceN-aV_WXbI2wbzoi2N9-8">
          <mxGeometry relative="1" as="geometry" />
        </mxCell>
        <mxCell id="ceN-aV_WXbI2wbzoi2N9-11" value="Memasukan Jadwal Guru dan Siswa" style="rounded=1;whiteSpace=wrap;html=1;" vertex="1" parent="1">
          <mxGeometry x="380" y="400" width="120" height="60" as="geometry" />
        </mxCell>
      </root>
    </mxGraphModel>
  </diagram>
</mxfile>
